# xmcd CD database file
#
# Track frame offsets:
#	150
#	17933
#	39194
#	56824
#	79599
#	109532
#	122996
#	142693
#	153653
#	183992
#	212488
#	237997
#	252280
#
# Disc length: 3827 seconds
#
# Revision: 0
# Processed by: cddbd v1.5.2PL0 Copyright (c) Steve Scherf et al.
# Submitted via: CDex 1.51
#
DISCID=a70ef10d
DTITLE=小確幸日記 - 與你的幸福約定
DYEAR=1900
DGENRE=Jazz
TTITLE0=走調
TTITLE1=屋裡的天空
TTITLE2=深情的理由
TTITLE3=珍妮特
TTITLE4=假如我有腦袋
TTITLE5=愛的灌溉
TTITLE6=如果是在這裡
TTITLE7=陪伴寶貝走回家
TTITLE8=所有一切
TTITLE9=紅絲絨
TTITLE10=另一個誰
TTITLE11=浪漫
TTITLE12=難得的時光
EXTD=
EXTT0=
EXTT1=
EXTT2=
EXTT3=
EXTT4=
EXTT5=
EXTT6=
EXTT7=
EXTT8=
EXTT9=
EXTT10=
EXTT11=
EXTT12=
PLAYORDER=
